<svg width="32" height="31" viewBox="0 0 32 31" fill="none" xmlns="http://www.w3.org/2000/svg">
<circle cx="16" cy="15.4835" r="15.4835" fill="#F5F5F5"/>
<path fill-rule="evenodd" clip-rule="evenodd" d="M14.5165 10L14.5165 18.6762L10.6316 14.7912C10.2501 14.4098 9.64106 14.4188 9.27112 14.8113C8.90118 15.2039 8.91048 15.8313 9.29189 16.2127L14.8127 21.7335C14.9677 21.8885 15.1603 21.9791 15.3592 22.0055C15.6715 22.0789 16.0125 21.9929 16.2595 21.7458L21.757 16.2484C22.1449 15.8605 22.1543 15.2225 21.7781 14.8233C21.402 14.4242 20.7826 14.415 20.3947 14.8028L16.5165 18.681L16.5165 10C16.5165 9.44772 16.0688 9 15.5165 9C14.9642 9 14.5165 9.44772 14.5165 10Z" fill="#747474"/>
</svg>
