<svg width="26" height="26" viewBox="0 0 26 26" fill="none" xmlns="http://www.w3.org/2000/svg">
<path fill-rule="evenodd" clip-rule="evenodd" d="M19.4849 6.48489C19.0944 6.09436 18.4612 6.09436 18.0707 6.48489L13 11.5556L7.92933 6.48488C7.5388 6.09436 6.90564 6.09436 6.51512 6.48488L6.48488 6.51512C6.09436 6.90564 6.09436 7.53881 6.48488 7.92933L11.5556 13L6.48488 18.0707C6.09436 18.4612 6.09436 19.0944 6.48489 19.4849L6.51512 19.5151C6.90564 19.9056 7.53881 19.9056 7.92933 19.5151L13 14.4444L18.0707 19.5151C18.4612 19.9056 19.0944 19.9056 19.4849 19.5151L19.5151 19.4849C19.9056 19.0944 19.9056 18.4612 19.5151 18.0707L14.4444 13L19.5151 7.92933C19.9056 7.53881 19.9056 6.90564 19.5151 6.51512L19.4849 6.48489Z" fill="#747474"/>
</svg>
